<mxfile host="www.draw.io" modified="2020-02-21T04:46:50.231Z" agent="Mozilla/5.0 (Windows NT 10.0; Win64; x64) AppleWebKit/537.36 (KHTML, like Gecko) Chrome/80.0.3987.116 Safari/537.36" etag="T5V_5vltqv1z6QNPIDfW" version="12.7.2" type="github">
  <diagram id="Ns8TB9k6B7BA3dVQWUGG" name="Page-1">
    <mxGraphModel dx="2249" dy="762" grid="1" gridSize="10" guides="1" tooltips="1" connect="1" arrows="1" fold="1" page="1" pageScale="1" pageWidth="827" pageHeight="1169" math="0" shadow="0">
      <root>
        <mxCell id="0" />
        <mxCell id="1" parent="0" />
        <mxCell id="COK3GCsZX3T8CLw1UcPQ-7" value="" style="shape=image;imageAspect=0;aspect=fixed;verticalLabelPosition=bottom;verticalAlign=top;image=https://image.flaticon.com/icons/svg/1447/1447743.svg;" vertex="1" parent="1">
          <mxGeometry x="210" y="140" width="50" height="50" as="geometry" />
        </mxCell>
        <mxCell id="3j8oUQN09gYwykHITEtm-1" value="" style="shape=flexArrow;endArrow=classic;html=1;" parent="1" edge="1">
          <mxGeometry width="50" height="50" relative="1" as="geometry">
            <mxPoint x="-140" y="39" as="sourcePoint" />
            <mxPoint x="580" y="39" as="targetPoint" />
          </mxGeometry>
        </mxCell>
        <mxCell id="3j8oUQN09gYwykHITEtm-3" value="Join" style="text;html=1;strokeColor=none;fillColor=none;align=center;verticalAlign=middle;whiteSpace=wrap;rounded=0;" parent="1" vertex="1">
          <mxGeometry x="65" y="10" width="40" height="20" as="geometry" />
        </mxCell>
        <mxCell id="COK3GCsZX3T8CLw1UcPQ-25" style="edgeStyle=none;rounded=0;orthogonalLoop=1;jettySize=auto;html=1;exitX=1;exitY=0.5;exitDx=0;exitDy=0;entryX=0;entryY=0.5;entryDx=0;entryDy=0;endArrow=classic;endFill=1;" edge="1" parent="1" source="3j8oUQN09gYwykHITEtm-4" target="COK3GCsZX3T8CLw1UcPQ-13">
          <mxGeometry relative="1" as="geometry" />
        </mxCell>
        <mxCell id="COK3GCsZX3T8CLw1UcPQ-26" value="Welcome SMS/eDM&lt;br&gt;and&amp;nbsp;&lt;br&gt;IVR survey" style="text;html=1;align=center;verticalAlign=middle;resizable=0;points=[];labelBackgroundColor=#ffffff;" vertex="1" connectable="0" parent="COK3GCsZX3T8CLw1UcPQ-25">
          <mxGeometry x="-0.2748" y="-1" relative="1" as="geometry">
            <mxPoint x="9.990000000000002" y="-2.2699999999999996" as="offset" />
          </mxGeometry>
        </mxCell>
        <mxCell id="3j8oUQN09gYwykHITEtm-4" value="Sales contact centre" style="shape=image;imageAspect=0;aspect=fixed;verticalLabelPosition=bottom;verticalAlign=top;image=https://image.flaticon.com/icons/svg/1067/1067566.svg;" parent="1" vertex="1">
          <mxGeometry x="60" y="347" width="50" height="50" as="geometry" />
        </mxCell>
        <mxCell id="COK3GCsZX3T8CLw1UcPQ-23" style="edgeStyle=none;rounded=0;orthogonalLoop=1;jettySize=auto;html=1;exitX=1;exitY=0.5;exitDx=0;exitDy=0;entryX=0.5;entryY=0;entryDx=0;entryDy=0;endArrow=classic;endFill=1;" edge="1" parent="1" source="3j8oUQN09gYwykHITEtm-5" target="COK3GCsZX3T8CLw1UcPQ-13">
          <mxGeometry relative="1" as="geometry" />
        </mxCell>
        <mxCell id="COK3GCsZX3T8CLw1UcPQ-24" value="Welcome SMS &lt;br&gt;and&lt;br&gt;Visa letter" style="text;html=1;align=center;verticalAlign=middle;resizable=0;points=[];labelBackgroundColor=#ffffff;" vertex="1" connectable="0" parent="COK3GCsZX3T8CLw1UcPQ-23">
          <mxGeometry x="-0.3307" y="2" relative="1" as="geometry">
            <mxPoint x="3.12" y="27.39" as="offset" />
          </mxGeometry>
        </mxCell>
        <mxCell id="3j8oUQN09gYwykHITEtm-5" value="Digital sales &#xa;and bots" style="shape=image;imageAspect=0;aspect=fixed;verticalLabelPosition=bottom;verticalAlign=top;image=https://image.flaticon.com/icons/svg/1640/1640809.svg;imageBackground=#ffffff;" parent="1" vertex="1">
          <mxGeometry x="180" y="170" width="50" height="50" as="geometry" />
        </mxCell>
        <mxCell id="3j8oUQN09gYwykHITEtm-6" value="Retail store" style="shape=image;imageAspect=0;aspect=fixed;verticalLabelPosition=bottom;verticalAlign=top;image=https://image.flaticon.com/icons/svg/1326/1326546.svg;" parent="1" vertex="1">
          <mxGeometry x="60" y="432" width="50" height="50" as="geometry" />
        </mxCell>
        <mxCell id="COK3GCsZX3T8CLw1UcPQ-11" style="edgeStyle=none;rounded=0;orthogonalLoop=1;jettySize=auto;html=1;exitX=1;exitY=0.5;exitDx=0;exitDy=0;entryX=0;entryY=0.5;entryDx=0;entryDy=0;" edge="1" parent="1" source="3j8oUQN09gYwykHITEtm-7" target="3j8oUQN09gYwykHITEtm-5">
          <mxGeometry relative="1" as="geometry" />
        </mxCell>
        <mxCell id="3j8oUQN09gYwykHITEtm-7" value="" style="shape=image;imageAspect=0;aspect=fixed;verticalLabelPosition=bottom;verticalAlign=top;image=data:image/jpeg,/9j/4AAQSkZJRgABAQAAAQABAAD/2wCEAAkGBwgHBgkIBwgKCgkLDRYPDQwMDRsUFRAWIB0iIiAdHx8kKDQsJCYxJx8fLT0tMTU3Ojo6Iys/RD84QzQ5OjcBCgoKDQwNGg8PGjclHyU3Nzc3Nzc3Nzc3Nzc3Nzc3Nzc3Nzc3Nzc3Nzc3Nzc3Nzc3Nzc3Nzc3Nzc3Nzc3Nzc3N//AABEIAGkAyAMBEQACEQEDEQH/xAAbAAEAAgMBAQAAAAAAAAAAAAAABQYBAwQHAv/EADsQAAEEAgECAggEBAMJAAAAAAEAAgMEBREGEiExUQcTFCJBYXGBFTKhsSNCkdEzN3MWJYKTsrPBw+H/xAAaAQEAAwEBAQAAAAAAAAAAAAAAAgMEAQUG/8QAMREAAwACAgECAggFBQAAAAAAAAECAxESIQQTMUFRFCIyNGFxgfAzQpHB4SNEobHx/9oADAMBAAIRAxEAPwD3FAEAQBAEAQBAEAQBAcct1u+mEdZ8/ggPkTTO7lwH0CA+xM8fzb+yA2snB/N2+aA2g7QGUAQBAEAQBAEAQBAEAQBAEAQBAEAQBAEBw25DIfVtPujxPmgI+/kaOKa025g17vysHdzvoFC7U+5KYdexB5HmTYKzpKtXZ8G+td8fnr+6ofk/JF8+P82R3EvSJVyFz8Ly8rI77nkROawhsgOzrtvRCsjL19YjeHT+qW25msbSYX2rbWMHieku/YLvrY/mQ9K/kSFC3FZhimrytlglYHRyMdtrgfAgq0ra0dyAIAgCAIAgCAIAgCAIAgCAIAgCAIAgPmR3SwlAQWfykWDwtvJSjqEDNhu9dTiQGj7khcp6WzqW3o8Ix2atZrK2bt+w98nX7o8Af/n7LLZrnr2LXAYrQY2cdTB4t3razvosTJSm7EYgmWOtFA94958UO3H6kDag+TJozZy1DKTRUqLpbFmdwYxjInD7kkAADxK7GOm9HKaS2y+YmgzGY6CnG7qbE3W9a2Sdn9V6crikjz6rlTZLxO6mKRE+0AQBAEAQBAEAQBAEAQBAEAQBAEAQGqx/h/cICm+k6hZyHCMjHTYZJouicRjxeGPDiB89ArjW0Sl6ezwTDvY2UyRSAtd3WekaFouGPt+HdUtFiZP154p2dEgDgqmiwvHGMJWx0HtIhDbEw/M4e81vl8vNbcEcZ2/cx5snJ6ROq8pOiqdsP1QG5AEAQBAEAQBAEAQBAEAQBAEAQBAEB8SjqYQgORAeJek7gb8flYsjxym50Fvq9dXi1qJ4+LR5Hfh8CPmqctxGuT1sthsqW7uOLW369ivs9jKwtB+hPiq1qvsvZamXPgDmZLP04Zev1J6ng6PS4tBIG/D4foVGZl3pnbbUvR7M4gb2thkNEkwCA7qIIrtJ8Xd0B0IAgCAIAgCAIAgCAIAgCAIAgCAIAgCA5JWdLjrwP6IDzz0v56xhKGM9jMZmlncS17d7aG9/1I/qs/kYYypKjV4scmyq4P0mRO/g5rHfwndnPhPW37sd/crJ9F4fZZprxW/ssulS5jr0nr8RYjlqvAIDD+Q+RHiPoViyY+GQpc1K1SLDBO8V/eOwB4+S9Pxcra40ZrR9VI33Z+juI2/nK2lZYAABoDQQGUAQBAEAQBAEAQBAEAQBAEAQBAEAQBAYLQRojaA8w9LHDc7nrVa5hxDYjrwlgql/Q8EnZIJ7Heh5eCjSbNfj5oxppnkk2EzVKUxZLDW4SP5vZ3dvuqWmenizRXxRKYOlna91k2Ip3jLv+SFxDvk7tohVXKvpo1X6DnWRrX5nufHat21jY35Woacr26khLg4j5ghMPj1L2z5/yOCtrHW18yfrwR14mxxN6Wj9VtM5tQBAEAQBAEAQBAEAQBAEAQBAEAQBAEAQBAEAQBAYGkBlAEAQBAEAQBAEAQBAEAQBAEAQBAYPggPPZ+Z5/MZ63juH4+nNFT2Jp7fVpxB1204aGwdeO9b7LavHxxCrM/f5GX17q3ONex157m1/DYrGss4tv47f2GU2ydTWHq1skeexofXv22o4/HnJT1X1V8Tt56iVtdsjpua8m49kacfLsbRZUtdvW1OodHcbPdzvDe9dvkSprx8OWW8Te18yNZ7x0lkXTOrMc2y9Tl9jBY3Fw3T6tpgAcWuLi0O24710gb/RRx+NFYldPR2s9LJwS2cFLn/JYsrZwmQwcE+WBDYY6xLGg63t23H3dHewf7qyvFxOFkmtT+JFeRfJw57JDi/MszNymTj/ACalVr2i0mM1w4DYG9d3HYI+I8lXl8fGsfqY30Sx56eTha0cGK5xyvO+3VsPiaEtmrKeqR5cGNZ3DRou2XHpd8QOynfjYcendPTIxnyXtJexL8R5ncz+EyL/AGBjsxRad1WO6GzHR6QN76dkEd/DzVWbx1jtd/VfxLMOZ5JfXaI7Nck55hqjsndxWIZRY5vXGHOc9oJAGyH+Z1vXx8FZjxeNkrjNPZDJlzRPJytHVyHn0tDA4TMUa0Tob7/4rJdksaPzAaI7+IUcXjK7qG/Ylk8jjE2viaW88y1THX8zmMQ2tjnBgxkZ7STud1fmJd5Df5R28Nrv0aKpRFbfxOeu1Dul18DRZ5nyzDV6mVz2KofhVlw22v1iaMHuN7cRvXw13+SkvHw5G5intHKz5ISql0ejxSNljZJGdse0OB8wVgNZ9oAgCAIAgCAIAgCAIAgMPG2kDxIQHkvorydPD5DN0MrPHVn9bvczg3ZaXBw2fiPL5r0vMirmalbRh8a5mqmvmfPN8rSk5hxvOwWGz43q6fXM7tBZJp/9Ngp48V6Vxrv/AAcz0vUi/gbvS5kKeajw+MxVmK1amn2BC4P0HDpG9eZP6LnhS8bq6WkS8qlfGZ9zbA0s9NgafFtcA/8AIC4/un7+Y/3P6GyX/O+P/Q/9JXF9zf7+If3r9DXe7+nGl28Ix/2Xrs/c3+/icr70jh9FeXx2IuckkyV2Gs1z43N9Y8Au06Xeh8fEf1U/LirmFK3+0c8a5mr2zl41kLmMw/K+U0ouls8oZWc5vYEvJLtfHp6h9/upZYm7x4n+pHHTibyJGrMiK3wc5TIcqtW8jZDdUfaQGdXWNtMY8gCfh4LuPaz8JjSXx1/cjk7w8qrs+ORf5ccS/wBaT/qcu4v4+Q7f8CC0emmCWTi+PmjaXRxWB19uw2wgE/ft91m8BpZGXeYv9NHF+DcVyOIimu8yvPruaHGKzfB6TrwLT4EfRT9TNF6nGt/kc9PHULddHp2Ohjgo14YXl8UcTWscfFzQBorz6bbezYvY6Vw6EAQBAEAQBAEAQBAYKA48ZkauWx8V6hKJq0oJZJojYBIPj8wVKpc1xr3OKk1tEIMJxTln+9fYYLZLiwzAOYXFp0d61vWtd1b6mbD9Xeit48eT62iWs4HE2sazGz4+u6kz8kPQA1n014H5hVrJarkn2SeOWuOujnxPE8Dhp/X47Gwwza0JO7nAfIuJ19l282S1qmcnFEdpHSMHjBlzlhTj/ECNe0d+rWtft2XPUrjw30S4Ty5a7BwmMOWGWNSM5ADpE/fq1rX7dk9SuPDfQ4Tvlrsw/CYx2Xbl3U4zfb2E/fqA1r9k9S+PDfQ4Ty5a7KvgPRvjKFi7LlBBkxYe18bZYdCLu4nXfvvqH9FoyeZdJKetFEeNEtt97Li6hTdSNF1aE1HM9WYOgdHT5a8NLLye+W+zRxWtEPW4RxqqZTDiINysLHF23diNEDZOvsrX5OV+9Faw459kclCDiOfi/CateGxHi3HUBa4CEkkHW/mCu082P67+JxLFa4r4FlsVK9qs+tZhZLBI3pfG8ba4eRCpTae0WtJrTIODgnFoZvWsw1cuB3p5c9o/4SSFc/JzNfaK1gxp9IkMhmsdibFOrcsMhltyCKvH0nbzsAAa+ZAVc47tNpexKrmWkySCgTMoAgCAIAgCAIAgCAjs/QhyOLmhndM1gBeDDM6N2wO3dpB18lPHTmk0RtbWipeizD1hxfGZQSWvaHRyAt9qkMX53DtHvp/RafMyV6lT1r8v7lPjpemmcXCOMw5rjjpLt++I/aJxDDBYdEyI9Z97TddR3397f0Us+Z48mpS+H4/Ajix8pe2aWckyNLgHq5r/AE3W5J2N9ulOyxod3kO/iG7/AHXfSms29da3o5zc4/f46NF7K8fw0mPucY5I61cbajZZhfffN7VG46cS1xI6vjseClMZbVLJGlrrrWiVanTlmOSR3L/pXbiq+TtUo7cAY98LzsNEZcdeRPTrfzTFxnxubW9f+FWTk8/FPXRwfg93Fc9dxnH5u9BUvRgvkD9v6S0k/fbSOofAqfqTeD1albRHhU5eCrpnbia03E/SjWw9W5Ymp3IveEz9kgtce/w2HN8fmo21m8Z212iUp486lPpndyrG8ThyNl/IOUX22XvLhC2cv9SD4AMDToeChhvO5XCFonlWNP61MjOGZO3Pwrl1V92axFVpyuryPcepoMb/AAPiB2B18FZnxzObG9e7RXgtuKW/Y3ejjB38/UpZPI5af2XH2CK1YHfUQ7qcXE/XXnoLnl5JxtzM9s740VaVU/Yq8Wflw1jlEFVxbbv2DCyQHXQ3rf1HfwPfQ+u/gtDxK1DfskZ/U4O0vdlv5EbfBOBQQVbUj8lflDZ7PrC4tPSS4MJ8ANAD6k+Ky4uPkZ22ul8DTkbw4dJ9sq2SvYTE0aV7jXI7k2aic02A/wBYGydve/MANb+GzsLTEXdOckLj+hTdzKTinv8AUkObY6G1y/j8wnshuYdDJJ/E/wALre1p9X293t3+qh49axWte2yXkRvJP4nptTjEFPFw0IZ5pGRes1LO7qk0/e/eGiPFedWV1Tpo2rHpaJPG1ZqsTxYn9dI9/W5/TrZ0Ae2+3cE6+ahTTfRKVpdnYokggCAIAgCAIAgNVlhlryRt8XsLR9wup6ZxlL9HFq3RwlLA3sPk69muJGyTSV9Qj3nOGn77+Ou21q8pKreRNaf9SjA2p4NEj6OqdmjxpsN2vJBL7TM7okb0nReSCq/JpVk2vw/6J4U1PZWmceys3F7Tq9R7chVzkl6vDMOn1oD9jW/MeCv9WFkW3050VOKcdLvZZqfKZ7bmRN45nGTEgPEtYMYzzPW4gED5KisCn+df1LFlb/lZX7eLyDvTFTyLaVg0Wx6NgRnoH8F47n6kBXzc/RHO+/8AKKnNfSFWujZksXff6W6GQZSsOpsga11gRnoB6X9t/cf1XIufornfZ25r6QnrrR85bF5CX0uYzIMpWHUo4QHWBGSxp6JPE/Uj+qRcrxanfZypr6Qq10QXGI8xxfLZSO7xW7k7liTcdlkW2E7dv+IQQAdg78fNX5vTyzPG9JFeJXjqtzvZ1cYweXqYXmsNzHTxT2a0oiY1hIkcWydmH+buR4fJRy5Iq8bT6Wv7EsUWle17lm9FdG5juKiC/WmrzCzI71crC06OtHSz+ZU1l3LLfFlzj0ym4zht/Kf7VQ3KM9eSSUzUpJYy0OeHvI0fIg6+61X5Mx6bl717/wDBnnA75pr8j7nw2f5HwKLG28faiyGKlBhE0Zb6+HpLdAnt1D/wPNFkxYs3JPqg4yZMXFrtExjuUZl9SGv/ALCXJL7WBrnyReqicR8epzeyprBj3v1FotnJekuHZq9JGPygznHsxTxVi0yp0OkirRl5a5r2v6dNB7eI34dlLxbjhcN62c8ia5zSW9F9wOQsZTHMtWsfPQe9x1BP+cD4E+W1iyQorSezVFOltrRIqBIIAgCAIAgCAIAgCAIAgCAIAgCAIDCAygCAIAgMBAZKABAEAQBAEAQH/9k=;" parent="1" vertex="1">
          <mxGeometry x="14.759999999999994" y="170" width="95.24" height="50" as="geometry" />
        </mxCell>
        <mxCell id="COK3GCsZX3T8CLw1UcPQ-12" style="edgeStyle=none;rounded=0;orthogonalLoop=1;jettySize=auto;html=1;exitX=1;exitY=0.5;exitDx=0;exitDy=0;entryX=0;entryY=0.5;entryDx=0;entryDy=0;" edge="1" parent="1" source="3j8oUQN09gYwykHITEtm-8" target="3j8oUQN09gYwykHITEtm-5">
          <mxGeometry relative="1" as="geometry">
            <mxPoint x="170" y="135" as="targetPoint" />
          </mxGeometry>
        </mxCell>
        <mxCell id="3j8oUQN09gYwykHITEtm-8" value="" style="shape=image;imageAspect=0;aspect=fixed;verticalLabelPosition=bottom;verticalAlign=top;image=https://healthinsurancecomparison.com.au/_nuxt/img/098c1c6.svg;" parent="1" vertex="1">
          <mxGeometry x="-20.430000000000007" y="120" width="130.43" height="30" as="geometry" />
        </mxCell>
        <mxCell id="COK3GCsZX3T8CLw1UcPQ-6" style="edgeStyle=none;rounded=0;orthogonalLoop=1;jettySize=auto;html=1;exitX=1;exitY=0.5;exitDx=0;exitDy=0;entryX=0;entryY=0.5;entryDx=0;entryDy=0;" edge="1" parent="1" source="3j8oUQN09gYwykHITEtm-9" target="3j8oUQN09gYwykHITEtm-5">
          <mxGeometry relative="1" as="geometry" />
        </mxCell>
        <mxCell id="COK3GCsZX3T8CLw1UcPQ-18" style="edgeStyle=none;rounded=0;orthogonalLoop=1;jettySize=auto;html=1;exitX=1;exitY=0.5;exitDx=0;exitDy=0;entryX=0;entryY=0.5;entryDx=0;entryDy=0;endArrow=classic;endFill=1;" edge="1" parent="1" source="3j8oUQN09gYwykHITEtm-9" target="COK3GCsZX3T8CLw1UcPQ-13">
          <mxGeometry relative="1" as="geometry" />
        </mxCell>
        <mxCell id="COK3GCsZX3T8CLw1UcPQ-19" value="Visa letter" style="text;html=1;align=center;verticalAlign=middle;resizable=0;points=[];labelBackgroundColor=#ffffff;" vertex="1" connectable="0" parent="COK3GCsZX3T8CLw1UcPQ-18">
          <mxGeometry x="0.0954" y="-1" relative="1" as="geometry">
            <mxPoint x="11.28" y="6.05" as="offset" />
          </mxGeometry>
        </mxCell>
        <mxCell id="3j8oUQN09gYwykHITEtm-9" value="bupa.com.au&#xa;corporate.bupa.com.au&#xa;migration.bupa.com.au" style="shape=image;imageAspect=0;aspect=fixed;verticalLabelPosition=bottom;verticalAlign=top;image=https://image.flaticon.com/icons/svg/811/811768.svg;" parent="1" vertex="1">
          <mxGeometry x="60" y="237" width="50" height="50" as="geometry" />
        </mxCell>
        <mxCell id="COK3GCsZX3T8CLw1UcPQ-1" style="edgeStyle=none;rounded=0;orthogonalLoop=1;jettySize=auto;html=1;entryX=0;entryY=0.5;entryDx=0;entryDy=0;exitX=1;exitY=0.5;exitDx=0;exitDy=0;" edge="1" parent="1" source="3j8oUQN09gYwykHITEtm-11" target="3j8oUQN09gYwykHITEtm-9">
          <mxGeometry relative="1" as="geometry" />
        </mxCell>
        <mxCell id="COK3GCsZX3T8CLw1UcPQ-2" style="edgeStyle=none;rounded=0;orthogonalLoop=1;jettySize=auto;html=1;exitX=1;exitY=0.5;exitDx=0;exitDy=0;entryX=0;entryY=0.5;entryDx=0;entryDy=0;" edge="1" parent="1" source="3j8oUQN09gYwykHITEtm-11" target="3j8oUQN09gYwykHITEtm-7">
          <mxGeometry relative="1" as="geometry" />
        </mxCell>
        <mxCell id="COK3GCsZX3T8CLw1UcPQ-3" style="edgeStyle=none;rounded=0;orthogonalLoop=1;jettySize=auto;html=1;exitX=1;exitY=0.5;exitDx=0;exitDy=0;entryX=0;entryY=0.5;entryDx=0;entryDy=0;" edge="1" parent="1" source="3j8oUQN09gYwykHITEtm-11" target="3j8oUQN09gYwykHITEtm-8">
          <mxGeometry relative="1" as="geometry" />
        </mxCell>
        <mxCell id="COK3GCsZX3T8CLw1UcPQ-4" style="edgeStyle=none;rounded=0;orthogonalLoop=1;jettySize=auto;html=1;exitX=1;exitY=0.5;exitDx=0;exitDy=0;entryX=0;entryY=0.5;entryDx=0;entryDy=0;" edge="1" parent="1" source="3j8oUQN09gYwykHITEtm-11" target="3j8oUQN09gYwykHITEtm-4">
          <mxGeometry relative="1" as="geometry" />
        </mxCell>
        <mxCell id="COK3GCsZX3T8CLw1UcPQ-5" style="edgeStyle=none;rounded=0;orthogonalLoop=1;jettySize=auto;html=1;exitX=1;exitY=0.5;exitDx=0;exitDy=0;entryX=0;entryY=0.5;entryDx=0;entryDy=0;" edge="1" parent="1" source="3j8oUQN09gYwykHITEtm-11" target="3j8oUQN09gYwykHITEtm-6">
          <mxGeometry relative="1" as="geometry" />
        </mxCell>
        <mxCell id="3j8oUQN09gYwykHITEtm-11" value="Consumer" style="shape=image;imageAspect=0;aspect=fixed;verticalLabelPosition=bottom;verticalAlign=top;image=https://image.flaticon.com/icons/svg/1306/1306440.svg;" parent="1" vertex="1">
          <mxGeometry x="-140" y="240" width="50" height="50" as="geometry" />
        </mxCell>
        <mxCell id="COK3GCsZX3T8CLw1UcPQ-17" style="edgeStyle=none;rounded=0;orthogonalLoop=1;jettySize=auto;html=1;exitX=1;exitY=0.5;exitDx=0;exitDy=0;entryX=0;entryY=0.5;entryDx=0;entryDy=0;endArrow=classic;endFill=1;" edge="1" parent="1" source="3j8oUQN09gYwykHITEtm-12" target="COK3GCsZX3T8CLw1UcPQ-16">
          <mxGeometry relative="1" as="geometry" />
        </mxCell>
        <mxCell id="COK3GCsZX3T8CLw1UcPQ-20" style="edgeStyle=none;rounded=0;orthogonalLoop=1;jettySize=auto;html=1;exitX=1;exitY=0.5;exitDx=0;exitDy=0;entryX=0;entryY=0.5;entryDx=0;entryDy=0;endArrow=classic;endFill=1;" edge="1" parent="1" source="3j8oUQN09gYwykHITEtm-12" target="COK3GCsZX3T8CLw1UcPQ-13">
          <mxGeometry relative="1" as="geometry" />
        </mxCell>
        <mxCell id="COK3GCsZX3T8CLw1UcPQ-21" value="Visa letter" style="text;html=1;align=center;verticalAlign=middle;resizable=0;points=[];labelBackgroundColor=#ffffff;" vertex="1" connectable="0" parent="COK3GCsZX3T8CLw1UcPQ-20">
          <mxGeometry x="0.3366" y="-1" relative="1" as="geometry">
            <mxPoint x="-15.79" y="22.05" as="offset" />
          </mxGeometry>
        </mxCell>
        <mxCell id="3j8oUQN09gYwykHITEtm-12" value="OSHC portal" style="shape=image;imageAspect=0;aspect=fixed;verticalLabelPosition=bottom;verticalAlign=top;image=https://image.flaticon.com/icons/svg/811/811768.svg;" parent="1" vertex="1">
          <mxGeometry x="60" y="517" width="50" height="50" as="geometry" />
        </mxCell>
        <mxCell id="COK3GCsZX3T8CLw1UcPQ-8" style="edgeStyle=none;rounded=0;orthogonalLoop=1;jettySize=auto;html=1;exitX=1;exitY=0.5;exitDx=0;exitDy=0;entryX=0;entryY=0.5;entryDx=0;entryDy=0;" edge="1" parent="1" source="3j8oUQN09gYwykHITEtm-13" target="3j8oUQN09gYwykHITEtm-12">
          <mxGeometry relative="1" as="geometry" />
        </mxCell>
        <mxCell id="3j8oUQN09gYwykHITEtm-13" value="Agent" style="shape=image;imageAspect=0;aspect=fixed;verticalLabelPosition=bottom;verticalAlign=top;image=https://image.flaticon.com/icons/svg/2300/2300359.svg;" parent="1" vertex="1">
          <mxGeometry x="-140" y="517" width="50" height="50" as="geometry" />
        </mxCell>
        <mxCell id="COK3GCsZX3T8CLw1UcPQ-13" value="HI Customer" style="shape=image;imageAspect=0;aspect=fixed;verticalLabelPosition=bottom;verticalAlign=top;image=https://image.flaticon.com/icons/svg/2519/2519075.svg;" vertex="1" parent="1">
          <mxGeometry x="310" y="347" width="50" height="50" as="geometry" />
        </mxCell>
        <mxCell id="COK3GCsZX3T8CLw1UcPQ-14" value="" style="shape=image;imageAspect=0;aspect=fixed;verticalLabelPosition=bottom;verticalAlign=top;image=https://image.flaticon.com/icons/svg/1447/1447743.svg;" vertex="1" parent="1">
          <mxGeometry x="210" y="490" width="50" height="50" as="geometry" />
        </mxCell>
        <mxCell id="COK3GCsZX3T8CLw1UcPQ-16" value="Bulk enrolment&#xa;and bots" style="shape=image;imageAspect=0;aspect=fixed;verticalLabelPosition=bottom;verticalAlign=top;image=https://image.flaticon.com/icons/svg/2286/2286676.svg;imageBackground=#ffffff;" vertex="1" parent="1">
          <mxGeometry x="180" y="517" width="50" height="50" as="geometry" />
        </mxCell>
        <mxCell id="COK3GCsZX3T8CLw1UcPQ-31" style="edgeStyle=none;rounded=0;orthogonalLoop=1;jettySize=auto;html=1;exitX=0.5;exitY=1;exitDx=0;exitDy=0;entryX=0.5;entryY=0;entryDx=0;entryDy=0;endArrow=classic;endFill=1;" edge="1" parent="1" source="COK3GCsZX3T8CLw1UcPQ-27" target="COK3GCsZX3T8CLw1UcPQ-28">
          <mxGeometry relative="1" as="geometry" />
        </mxCell>
        <mxCell id="COK3GCsZX3T8CLw1UcPQ-32" style="edgeStyle=none;rounded=0;orthogonalLoop=1;jettySize=auto;html=1;exitX=1;exitY=0.5;exitDx=0;exitDy=0;entryX=0;entryY=0.5;entryDx=0;entryDy=0;endArrow=classic;endFill=1;" edge="1" parent="1" source="COK3GCsZX3T8CLw1UcPQ-27" target="COK3GCsZX3T8CLw1UcPQ-29">
          <mxGeometry relative="1" as="geometry" />
        </mxCell>
        <mxCell id="COK3GCsZX3T8CLw1UcPQ-27" value="Welcome kit batch" style="shape=image;imageAspect=0;aspect=fixed;verticalLabelPosition=bottom;verticalAlign=top;image=https://image.flaticon.com/icons/svg/2286/2286676.svg;imageBackground=#ffffff;" vertex="1" parent="1">
          <mxGeometry x="373.84" y="110" width="50" height="50" as="geometry" />
        </mxCell>
        <mxCell id="COK3GCsZX3T8CLw1UcPQ-30" style="edgeStyle=none;rounded=0;orthogonalLoop=1;jettySize=auto;html=1;exitX=0.5;exitY=1;exitDx=0;exitDy=0;entryX=1;entryY=0.5;entryDx=0;entryDy=0;endArrow=classic;endFill=1;" edge="1" parent="1" source="COK3GCsZX3T8CLw1UcPQ-28" target="COK3GCsZX3T8CLw1UcPQ-13">
          <mxGeometry relative="1" as="geometry" />
        </mxCell>
        <mxCell id="COK3GCsZX3T8CLw1UcPQ-28" value="" style="shape=image;imageAspect=0;aspect=fixed;verticalLabelPosition=bottom;verticalAlign=top;image=https://abcorp.com/wp-content/uploads/2017/10/logo.png;" vertex="1" parent="1">
          <mxGeometry x="351.54" y="220" width="94.61" height="30" as="geometry" />
        </mxCell>
        <mxCell id="COK3GCsZX3T8CLw1UcPQ-29" value="BOSS" style="shape=image;imageAspect=0;aspect=fixed;verticalLabelPosition=bottom;verticalAlign=top;image=https://storefront.internal.bupa.com.au/Citrix/XenAppWeb/Resources/Icon/L0NpdHJpeC9YZW5BcHAvcmVzb3VyY2VzL3YyL01VWTFiMEo2T1ZSeWR6RlFUMnQxYTBGR1MwUmtTaTlKVkc1M1BRLS0vaW1hZ2U-?size=128;" vertex="1" parent="1">
          <mxGeometry x="510" y="110" width="50" height="50" as="geometry" />
        </mxCell>
        <mxCell id="COK3GCsZX3T8CLw1UcPQ-33" value="Adobe Suite" style="shape=image;imageAspect=0;aspect=fixed;verticalLabelPosition=bottom;verticalAlign=top;image=https://www.adobe.com/content/dam/www/icons/marketing-cloud.svg;" vertex="1" parent="1">
          <mxGeometry x="510" y="297" width="51.33" height="50" as="geometry" />
        </mxCell>
      </root>
    </mxGraphModel>
  </diagram>
</mxfile>
